<?xml version="1.0" standalone="no"?>
<!DOCTYPE svg PUBLIC "-//W3C//DTD SVG 20010904//EN"
 "http://www.w3.org/TR/2001/REC-SVG-20010904/DTD/svg10.dtd">
<svg version="1.0" xmlns="http://www.w3.org/2000/svg"
 width="1066.000000pt" height="1599.000000pt" viewBox="0 0 1066.000000 1599.000000"
 preserveAspectRatio="xMidYMid meet">

<g transform="translate(0.000000,1599.000000) scale(0.100000,-0.100000)"
fill="#000000" stroke="none">
<path d="M4305 10155 c-232 -43 -486 -196 -618 -374 -59 -80 -122 -214 -146
-312 -34 -140 -45 -270 -45 -519 1 -202 3 -247 21 -320 30 -122 94 -280 136
-336 20 -27 53 -73 73 -102 41 -58 45 -59 123 -16 24 13 49 24 55 24 6 0 29
-25 51 -56 22 -31 45 -62 50 -68 6 -6 30 -38 55 -71 59 -80 89 -110 125 -123
17 -6 75 -27 130 -46 55 -20 116 -48 137 -61 21 -14 59 -30 85 -36 153 -35
221 -54 248 -68 17 -8 66 -19 110 -22 44 -4 107 -11 141 -15 45 -5 80 -1 141
14 91 23 120 20 125 -12 3 -23 41 -34 61 -18 29 24 90 52 111 52 13 0 26 7 29
15 4 8 22 21 41 29 19 8 40 25 47 38 6 12 17 26 23 30 6 4 7 10 3 14 -4 4 -15
0 -25 -9 -19 -17 -52 -23 -52 -9 1 4 9 17 19 30 21 24 47 29 53 10 6 -17 51
-3 86 27 36 30 42 31 42 5 0 -11 6 -20 13 -20 6 0 12 -13 13 -28 1 -25 -6 -31
-69 -60 -46 -21 -74 -29 -81 -22 -17 13 -33 -1 -41 -38 -5 -25 -15 -37 -38
-47 -18 -7 -43 -25 -56 -39 -25 -26 -51 -34 -51 -16 0 25 -40 7 -59 -26 -17
-29 -26 -35 -49 -32 -15 2 -28 9 -28 16 -1 6 -2 21 -3 33 0 11 -6 17 -11 14
-38 -23 -451 -39 -583 -22 -105 14 -126 3 -38 -19 29 -8 58 -20 66 -27 16 -17
81 -34 157 -42 69 -8 86 -23 60 -55 -18 -23 -20 -23 -118 -12 -165 17 -274 41
-323 70 -25 15 -59 34 -76 43 -17 9 -42 38 -57 65 -15 26 -57 79 -94 116 -64
65 -69 68 -115 68 -27 0 -49 -4 -49 -10 0 -5 -7 -10 -15 -10 -8 0 -15 -4 -15
-9 0 -5 -15 -16 -32 -26 -64 -33 -79 -43 -79 -51 0 -5 -7 -9 -17 -10 -39 -2
-41 -4 -36 -36 6 -33 5 -33 -80 -73 -47 -22 -86 -43 -86 -47 0 -4 -31 -22 -69
-42 -124 -63 -305 -212 -299 -245 5 -24 62 -33 106 -18 45 16 139 8 183 -15
62 -32 143 -113 95 -95 -13 5 -62 0 -171 -18 -366 -61 -379 -64 -449 -99 -84
-42 -135 -88 -195 -178 -42 -62 -70 -81 -56 -37 4 12 1 21 -9 25 -9 3 -14 10
-11 14 3 5 -4 6 -15 3 -19 -5 -20 -2 -15 38 10 68 15 88 34 133 10 22 24 55
31 71 27 61 66 376 53 420 -5 16 -8 11 -18 -22 -7 -23 -18 -72 -25 -110 -6
-37 -18 -86 -26 -108 -14 -40 -52 -251 -56 -313 -3 -39 -11 -47 -55 -57 -32
-6 -34 -10 -67 -118 -19 -62 -40 -131 -46 -154 -10 -42 -29 -66 -31 -41 -3 27
2 54 13 76 9 17 9 34 1 62 -5 22 -6 41 -2 42 5 2 12 44 15 95 7 88 6 92 -13
87 -38 -10 -96 -197 -119 -382 -4 -29 -10 -54 -14 -57 -11 -7 -20 95 -12 140
9 54 4 115 -11 115 -7 0 -23 -23 -37 -52 -14 -28 -33 -56 -42 -62 -10 -6 -18
-18 -18 -28 0 -9 -5 -18 -11 -20 -9 -3 -9 -9 0 -26 13 -24 12 -160 -1 -168
-11 -7 -10 -44 2 -44 6 0 10 -4 10 -10 0 -5 -18 -10 -39 -10 l-39 0 -11 63
c-6 35 -11 75 -12 88 0 13 -4 33 -9 44 -9 23 -9 23 -35 -70 -10 -33 -23 -74
-31 -91 -7 -17 -20 -55 -28 -85 -8 -30 -17 -62 -21 -71 -5 -11 -3 -18 5 -18 9
0 11 -19 5 -77 -4 -43 -11 -80 -15 -83 -4 -3 -10 -14 -12 -25 -4 -16 -8 -13
-22 18 -17 39 -30 47 -40 22 -14 -37 -79 8 -105 73 -15 36 -31 42 -31 12 0
-12 -7 -20 -16 -20 -14 0 -15 -7 -10 -40 5 -31 3 -40 -8 -40 -10 0 -14 -12
-14 -42 1 -63 -1 -70 -13 -63 -6 4 -8 13 -5 21 7 17 -14 30 -24 15 -10 -17
-22 112 -14 153 9 51 -8 50 -55 -2 -23 -26 -55 -61 -70 -78 -16 -17 -33 -53
-40 -80 -11 -46 -10 -54 19 -123 16 -41 30 -78 30 -84 0 -15 110 -197 119
-197 4 0 13 -11 20 -24 18 -33 83 -77 166 -110 39 -16 77 -37 86 -46 26 -30
79 -53 294 -130 124 -44 349 -63 467 -39 113 23 341 125 382 173 19 21 19 21
13 -29 -4 -27 -11 -102 -17 -165 -6 -63 -19 -144 -30 -180 -11 -36 -28 -95
-40 -132 -11 -37 -20 -75 -20 -84 0 -10 -13 -56 -29 -103 -16 -47 -36 -115
-45 -151 -9 -36 -21 -78 -26 -95 -12 -41 -68 -247 -86 -320 -8 -33 -19 -69
-23 -80 -5 -11 -21 -51 -36 -90 -16 -38 -39 -94 -52 -123 -12 -29 -23 -57 -23
-61 0 -5 -15 -31 -33 -58 -18 -27 -46 -81 -62 -119 -16 -38 -32 -71 -35 -74
-10 -10 -29 -56 -39 -95 -6 -22 -21 -56 -33 -75 -19 -30 -22 -50 -22 -137 -1
-56 -4 -105 -8 -109 -5 -4 -8 -13 -8 -21 0 -7 -13 -42 -30 -76 -16 -35 -30
-70 -30 -78 0 -8 -14 -47 -30 -88 -17 -40 -30 -81 -30 -91 0 -10 -7 -31 -15
-46 -8 -16 -15 -36 -15 -45 0 -9 -7 -36 -16 -60 -8 -24 -19 -62 -24 -84 -4
-22 -13 -53 -19 -70 -5 -16 -17 -64 -26 -105 -22 -106 -45 -202 -55 -225 -7
-18 -20 -64 -34 -120 -3 -11 -21 -65 -40 -120 -19 -55 -36 -110 -36 -123 0
-13 -7 -36 -15 -52 -8 -16 -19 -55 -24 -87 -4 -32 -11 -65 -15 -74 -7 -17 20
-48 145 -164 30 -27 65 -65 79 -84 14 -18 51 -66 82 -105 31 -39 59 -86 63
-104 10 -51 51 -123 94 -162 l38 -35 -14 -132 c-7 -73 -18 -144 -23 -159 l-10
-25 -112 6 c-198 11 -268 14 -483 20 -223 5 -462 13 -585 20 -41 2 -181 6
-310 10 -266 8 -284 8 -615 24 -132 6 -302 12 -377 14 l-138 4 0 -68 c0 -63 2
-69 22 -73 28 -6 171 -12 570 -26 169 -6 331 -12 360 -14 65 -6 610 -33 893
-46 310 -14 599 -29 690 -38 77 -7 80 -8 78 -32 -9 -108 -23 -261 -27 -288
l-5 -32 2472 1 c1360 1 2462 4 2450 6 -28 5 -30 23 -3 23 11 0 20 5 20 11 0 6
10 9 23 7 16 -2 22 -9 21 -26 -1 -21 2 -22 83 -21 77 1 104 11 67 26 -8 3 -20
16 -25 29 -4 13 -15 24 -23 24 -7 0 -16 6 -19 14 -4 9 -19 12 -49 10 -24 -2
-68 1 -98 6 -38 7 -56 7 -58 0 -3 -7 -9 -5 -16 5 -8 12 -35 16 -118 18 -60 2
-112 -1 -117 -6 -13 -13 -33 27 -24 49 6 16 27 17 292 10 577 -14 663 -15
1011 -21 195 -3 378 -8 406 -10 28 -2 190 -9 360 -15 170 -5 442 -15 604 -20
162 -6 394 -12 515 -15 121 -3 239 -8 263 -11 l42 -6 0 96 0 96 -82 2 c-46 2
-123 3 -173 4 -49 1 -171 5 -270 8 -99 4 -283 9 -410 12 -126 2 -293 9 -370
14 -177 13 -794 34 -900 31 -92 -2 -91 -2 -208 -1 -73 0 -90 3 -107 20 -11 11
-24 20 -30 20 -5 0 -10 6 -10 14 0 18 -26 39 -39 32 -6 -4 -3 -18 7 -36 21
-37 11 -47 -37 -34 -24 7 -45 7 -59 1 -26 -12 -41 -2 -24 15 17 17 15 28 -7
28 -10 0 -29 8 -42 18 -35 27 -89 36 -103 16 -7 -9 -18 -12 -29 -8 -24 9 -16
27 14 35 26 7 17 12 -17 10 -13 -1 -24 7 -32 24 -6 14 -15 25 -20 25 -13 0
-78 63 -85 82 -5 15 -2 16 40 3 24 -7 53 -21 63 -30 20 -18 40 -13 40 10 0 7
-7 16 -16 19 -11 4 -14 14 -10 33 3 16 0 35 -7 43 -18 22 -57 42 -57 30 0 -13
-87 -13 -95 1 -11 16 1 22 50 23 25 1 45 4 45 9 0 4 6 7 14 7 7 0 16 10 19 22
6 21 -2 32 -28 41 -6 2 -4 14 4 30 12 23 12 31 1 52 -7 14 -17 25 -22 25 -4 0
-8 7 -8 16 0 11 6 14 23 8 12 -3 22 -7 23 -8 0 0 5 -17 10 -36 9 -33 13 -35
54 -38 l45 -2 -27 24 c-32 28 -37 50 -10 42 9 -3 36 -9 59 -14 39 -9 41 -8 30
9 -6 10 -16 18 -22 17 -14 -3 -85 63 -85 80 0 11 -3 10 -16 -2 -17 -18 -64
-22 -64 -6 0 6 -6 10 -13 10 -22 0 -51 26 -43 39 5 8 13 8 29 -1 12 -6 37 -11
56 -9 19 1 48 -3 63 -10 37 -15 62 3 29 20 -12 7 -21 18 -21 26 0 8 -6 15 -13
15 -7 0 -32 18 -56 40 -23 22 -51 40 -62 40 -22 0 -26 18 -6 26 15 5 83 -21
92 -36 3 -5 17 -10 29 -10 13 0 29 -7 36 -15 7 -8 19 -15 26 -15 8 0 14 -7 14
-15 0 -8 5 -15 10 -15 6 0 10 5 10 10 0 6 10 15 23 20 22 9 22 9 -3 9 -35 1
-77 31 -59 42 11 6 11 11 2 20 -9 9 -16 9 -25 2 -17 -14 -58 1 -58 20 0 8 -7
20 -15 27 -8 7 -12 16 -9 21 8 14 44 10 44 -5 0 -16 28 -41 36 -33 13 13 -19
78 -46 93 -16 10 -26 23 -23 31 6 16 33 18 33 2 0 -7 11 -8 30 -4 28 6 44 -9
18 -17 -7 -3 -3 -12 11 -25 26 -24 51 -20 51 8 0 10 5 19 10 19 6 0 20 9 32
20 l22 20 -22 20 c-28 26 -46 26 -30 0 10 -15 10 -25 2 -38 -14 -21 -44 -28
-44 -10 -1 13 -61 48 -84 48 -8 0 -19 7 -26 15 -14 17 -8 18 68 15 39 -1 42 0
42 24 0 14 -3 26 -7 27 -5 0 -25 1 -46 3 -44 3 -55 12 -39 28 9 9 12 9 12 -1
0 -10 12 -12 45 -9 24 3 42 2 40 -3 -3 -4 -1 -10 4 -13 5 -3 7 -15 4 -25 -3
-13 2 -21 17 -26 24 -8 49 8 31 19 -16 10 -13 37 6 58 16 17 15 19 -15 30 -18
7 -32 16 -32 20 0 14 34 48 50 49 10 0 11 2 3 6 -7 2 -13 13 -13 24 0 10 -4
19 -10 19 -5 0 -9 -9 -7 -19 1 -11 -2 -20 -8 -21 -21 -2 -14 27 16 63 22 27
38 37 60 37 16 0 29 5 29 10 0 6 -7 10 -15 10 -18 0 -18 5 -5 31 6 10 17 19
24 19 8 0 16 9 19 21 3 11 15 23 26 26 12 3 21 8 21 12 0 17 102 111 120 111
12 0 20 7 20 16 0 15 29 74 41 84 8 7 23 51 24 70 1 8 -10 34 -22 57 -13 23
-23 51 -23 62 0 12 -9 38 -20 58 -11 21 -20 44 -20 51 0 7 -7 20 -15 28 -8 9
-15 27 -15 42 0 15 -9 47 -20 71 -11 24 -20 55 -20 68 0 14 -8 33 -18 42 -25
22 -38 48 -46 96 -8 46 -28 108 -37 115 -14 12 -29 51 -29 78 0 26 -12 64 -40
127 -5 11 -11 34 -13 50 -3 17 -14 57 -25 90 -11 33 -28 89 -37 125 -10 36
-23 79 -30 95 -8 17 -21 47 -30 68 -9 20 -13 42 -10 47 3 6 1 10 -6 10 -7 0
-9 10 -6 25 3 18 -2 30 -16 40 -18 13 -21 26 -23 123 -1 74 -7 119 -17 138
-11 21 -12 35 -6 47 7 11 6 17 -1 17 -10 0 -50 57 -50 73 0 4 12 7 28 8 26 1
26 1 -6 10 -35 10 -68 59 -45 66 14 5 -16 63 -33 63 -6 0 -21 23 -34 50 -16
33 -30 50 -42 50 -14 0 -18 8 -18 38 0 27 3 33 10 22 8 -13 10 -12 10 3 0 10
-8 17 -19 17 -14 0 -20 9 -24 38 -2 20 0 41 4 47 14 15 10 25 -10 25 -12 0
-21 9 -24 28 -4 15 -13 56 -22 92 -23 92 -36 169 -36 213 1 20 -4 37 -9 37
-17 0 -12 108 6 135 15 23 15 25 0 25 -13 0 -15 11 -13 70 2 39 1 72 -1 75 -9
9 -1 170 9 173 6 2 4 10 -3 20 -10 11 -13 82 -14 291 -1 152 1 284 3 294 5 18
63 25 63 7 0 -5 7 -10 16 -10 8 0 13 4 9 10 -11 18 73 29 285 34 136 4 233 11
265 20 59 16 177 61 220 83 16 9 39 20 49 26 48 24 114 62 141 81 17 11 42 28
57 36 48 27 171 126 243 197 67 64 71 72 85 136 7 38 17 70 22 73 12 8 10 44
-3 44 -6 0 -9 6 -6 13 2 6 0 20 -5 30 -8 16 -10 16 -26 1 -12 -13 -13 -19 -4
-22 6 -2 12 -9 12 -15 0 -8 -4 -7 -12 1 -7 7 -20 12 -30 12 -14 0 -18 8 -18
40 0 22 -4 40 -10 40 -5 0 -10 9 -10 19 0 42 -106 301 -123 301 -8 0 0 -60 14
-98 5 -13 9 -38 9 -57 0 -19 5 -37 10 -40 6 -3 10 -15 10 -26 0 -10 4 -19 9
-19 13 0 34 -57 26 -70 -5 -8 -10 -8 -20 0 -18 15 -55 95 -55 120 0 11 -9 34
-21 52 l-21 33 5 -33 c8 -67 -23 -47 -89 56 -19 29 -34 57 -34 62 0 5 -14 25
-30 43 -17 19 -33 50 -37 68 -8 43 -59 136 -92 170 -14 14 -40 33 -57 42 -17
9 -42 28 -55 42 -13 15 -32 36 -42 47 -10 11 -25 17 -33 14 -9 -3 -14 1 -14
11 0 13 -3 14 -12 5 -9 -9 1 -24 45 -66 42 -39 56 -58 51 -71 -4 -10 -1 -20 6
-25 7 -4 9 -13 6 -19 -4 -6 -11 -9 -16 -6 -5 3 -19 1 -30 -5 -25 -14 -79 11
-147 68 -26 22 -73 50 -103 61 -68 26 -242 53 -515 82 -115 12 -220 26 -233
30 -13 5 -36 9 -51 9 -35 0 -121 29 -121 41 0 8 43 14 80 11 25 -2 72 9 65 16
-3 4 15 16 41 27 42 18 57 19 167 12 67 -4 124 -12 127 -17 10 -16 192 -18
197 -3 3 7 -3 16 -13 20 -10 4 -29 16 -41 27 -42 37 -191 118 -240 130 -15 4
-50 22 -78 39 -27 18 -67 40 -89 50 -21 9 -37 20 -34 23 7 6 103 -33 228 -93
52 -25 106 -51 120 -57 14 -6 27 -14 30 -17 9 -12 118 -59 136 -59 19 0 -96
96 -127 105 -13 5 -18 12 -14 24 4 12 -7 27 -39 49 -24 18 -49 32 -55 32 -6 0
-16 9 -23 20 -9 14 -24 20 -50 20 -21 0 -38 -4 -38 -9 0 -16 -43 -20 -64 -5
-11 7 -29 14 -40 14 -11 0 -48 16 -83 35 -35 19 -73 35 -83 35 -11 0 -20 4
-20 8 0 5 -17 14 -37 20 -21 6 -50 23 -65 37 -15 14 -35 25 -44 25 -9 0 -35
13 -58 28 -22 15 -49 31 -58 35 -11 4 -15 12 -12 22 6 14 -6 20 -30 16 -22 -5
-56 11 -56 24 0 9 -10 20 -23 26 -23 10 -47 58 -47 91 0 9 -12 31 -27 49 -16
18 -27 35 -26 38 3 10 -33 20 -43 13 -12 -9 -61 -110 -70 -142 -3 -14 -24 -63
-46 -110 -42 -88 -90 -150 -117 -150 -9 0 -36 -23 -60 -51 -65 -73 -118 -102
-175 -94 -39 6 -47 4 -53 -11 -3 -10 -2 -19 4 -21 5 -2 19 -10 29 -18 18 -15
18 -16 -11 -40 -31 -26 -69 -32 -95 -15 -13 8 -13 14 4 44 10 19 24 37 31 40
8 3 31 29 53 58 22 29 56 71 76 92 19 21 33 43 30 47 -12 20 -52 7 -89 -31
-22 -21 -45 -39 -51 -40 -6 0 -17 -7 -25 -16 -8 -10 -24 -14 -46 -12 -30 4
-33 2 -33 -24 0 -18 -5 -28 -15 -28 -17 0 -35 30 -35 60 0 17 5 21 24 18 16
-2 31 7 50 29 14 17 26 34 26 38 0 4 15 25 34 47 19 21 36 48 39 60 5 17 2 19
-21 13 -29 -7 -43 -22 -72 -77 -11 -21 -30 -43 -43 -49 -12 -7 -47 -36 -77
-66 -52 -52 -55 -54 -58 -30 -2 14 10 54 26 89 24 53 40 73 92 112 34 26 68
50 76 53 8 3 14 11 14 19 0 7 7 17 16 22 9 5 17 23 18 39 2 39 17 56 83 94 39
22 53 36 50 48 -3 9 -16 45 -30 81 -14 36 -36 95 -50 132 -23 59 -63 144 -111
233 -8 17 -25 53 -37 80 -57 133 -156 317 -204 380 -29 39 -100 113 -156 165
-87 81 -159 167 -237 280 -40 60 -227 231 -282 260 -14 7 -34 20 -45 30 -31
27 -202 91 -285 106 -93 17 -243 16 -335 -1z m627 -696 c21 -11 75 -43 121
-73 46 -30 106 -65 133 -79 27 -14 65 -41 83 -61 l35 -36 -36 0 c-19 0 -80
-13 -134 -29 -144 -42 -183 -47 -190 -24 -3 10 -10 28 -16 40 -6 11 -8 26 -4
31 3 5 -1 15 -9 22 -8 7 -15 19 -15 26 0 10 -15 14 -54 14 -52 0 -81 -12 -54
-23 12 -5 -31 -10 -117 -13 -22 0 -63 -6 -90 -12 -82 -19 -136 -19 -148 -1
-14 22 12 73 41 77 12 2 22 8 22 14 0 11 21 32 60 58 12 8 36 27 53 41 21 19
51 30 101 39 39 7 76 13 81 14 25 6 104 -8 137 -25z m-32 -248 c0 -6 -4 -13
-10 -16 -5 -3 -10 1 -10 9 0 9 5 16 10 16 6 0 10 -4 10 -9z m506 -107 c22 -25
55 -53 74 -64 73 -39 171 -164 207 -266 50 -139 75 -312 54 -379 -8 -26 -9
-27 -10 -6 -1 16 -6 21 -15 18 -11 -4 -16 6 -20 41 -11 97 -18 137 -26 145 -4
4 -29 10 -56 13 -26 2 -53 9 -58 14 -6 6 -28 10 -51 10 -22 0 -105 11 -185 25
-80 13 -150 25 -157 25 -7 0 -18 -18 -24 -41 l-13 -40 48 -46 c63 -62 60 -81
-18 -104 -68 -21 -184 -16 -193 8 -3 7 -10 13 -17 13 -15 0 -68 48 -90 82 -14
22 -15 31 -6 49 8 13 10 41 6 73 -5 36 -2 62 8 88 23 55 32 55 136 10 19 -8
47 -21 62 -29 35 -17 58 -17 58 2 0 15 24 28 98 55 36 14 95 76 89 93 -2 7
-12 11 -21 11 -27 -3 -18 12 27 42 72 49 117 87 117 99 0 12 -45 30 -104 40
-21 3 -46 14 -55 22 -14 15 -13 16 12 9 16 -4 27 -2 27 4 0 9 32 27 51 29 4 1
24 -19 45 -45z m-673 -558 c26 -29 18 -79 -25 -152 -29 -50 -41 -62 -84 -78
-27 -10 -58 -22 -69 -27 -11 -4 -33 -9 -50 -10 -35 -3 -106 21 -99 33 11 17
-18 46 -63 63 -59 22 -73 32 -73 54 0 35 37 59 97 65 140 14 202 24 229 38 16
9 42 22 58 31 32 17 52 13 79 -17z m192 -136 c0 -32 -47 -60 -72 -44 -26 16
-27 40 -4 63 27 27 76 15 76 -19z m355 -58 c19 -16 21 -22 11 -40 -8 -15 -21
-22 -41 -22 -28 0 -30 2 -30 40 0 33 4 40 19 40 10 0 29 -8 41 -18z m253 -269
c-3 -7 0 -13 7 -13 6 0 10 -10 8 -22 -2 -17 -9 -22 -25 -20 -21 3 -23 -1 -23
-37 0 -23 5 -41 10 -41 14 0 12 -27 -5 -59 -18 -35 -53 -46 -77 -25 -12 12
-27 14 -56 9 -25 -4 -42 -2 -47 4 -10 17 -40 13 -68 -9 -27 -21 -67 -27 -67
-10 0 6 11 15 25 20 14 5 25 14 25 19 0 15 156 128 197 143 48 17 61 28 56 49
-3 11 2 19 14 21 21 4 33 -9 26 -29z m1447 -108 c23 -13 23 -14 4 -15 -11 0
-29 7 -40 15 -26 19 1 20 36 0z m70 -35 c8 -5 11 -10 5 -10 -5 0 -17 5 -25 10
-8 5 -10 10 -5 10 6 0 17 -5 25 -10z m-1158 -236 c11 -39 4 -54 -26 -54 -18 0
-23 -4 -20 -17 8 -29 -18 -53 -60 -56 -22 -1 -41 3 -43 10 -7 18 58 85 78 80
9 -3 23 -1 30 3 10 7 10 11 0 24 -11 13 -11 19 -1 31 18 21 32 14 42 -21z
m-1922 -164 c0 -5 -4 -10 -10 -10 -5 0 -10 5 -10 10 0 6 5 10 10 10 6 0 10 -4
10 -10z m3957 -296 c13 -4 20 -10 17 -15 -10 -17 -104 -6 -104 12 0 10 54 12
87 3z m-1704 -103 c4 -4 5 -15 1 -24 -10 -27 -84 -19 -84 9 0 29 56 39 83 15z
m-220 -88 c17 -18 35 -33 41 -33 5 0 18 -8 29 -17 16 -15 38 -18 121 -18 106
0 142 11 187 56 12 12 19 15 19 6 0 -18 -47 -61 -90 -82 -80 -41 -240 -26
-302 28 -33 29 -58 79 -57 114 l0 28 10 -25 c6 -14 24 -40 42 -57z m-2463
-137 c0 -2 -31 -23 -70 -46 -38 -23 -98 -70 -132 -104 -37 -37 -78 -68 -98
-74 -44 -13 -282 -11 -287 3 -5 16 63 54 117 67 28 6 50 14 50 18 0 3 14 7 32
8 18 2 52 9 75 17 24 8 48 15 53 15 10 0 34 10 165 69 64 28 95 37 95 27z
m2980 -245 c0 -87 -3 -295 -7 -462 -5 -260 -8 -300 -19 -274 l-13 30 -1 -27
c0 -20 -5 -28 -17 -28 -10 0 -29 -9 -43 -20 -14 -11 -37 -20 -52 -20 -16 0
-28 -4 -28 -10 0 -5 -4 -10 -10 -10 -5 0 -10 12 -10 26 0 14 -4 23 -9 20 -13
-9 -28 15 -34 56 -3 20 -12 52 -20 70 -22 50 -58 171 -59 199 -1 13 -5 29 -9
34 -4 6 -7 42 -6 80 1 52 -4 77 -17 97 -13 21 -17 38 -12 65 5 28 4 34 -3 23
-10 -13 -11 -13 -12 0 -1 8 -3 20 -3 25 -1 6 -6 17 -11 25 -5 8 -10 21 -10 30
-1 8 -10 42 -19 75 l-18 59 34 28 c19 16 39 25 48 21 29 -12 221 -16 233 -4 6
6 20 11 32 11 11 0 33 11 49 25 16 13 33 22 37 19 5 -3 9 -76 9 -163z m372
-83 c35 -20 87 -83 76 -93 -2 -2 -24 10 -48 26 -34 23 -54 30 -82 27 -31 -3
-39 0 -48 20 -5 13 -8 28 -5 33 11 16 66 10 107 -13z m88 -208 c-6 -11 -13
-20 -16 -20 -2 0 0 9 6 20 6 11 13 20 16 20 2 0 0 -9 -6 -20z m-2867 -59 c6
-6 19 -11 29 -11 10 0 18 -5 18 -10 0 -7 20 -10 48 -9 32 2 57 -3 73 -14 13
-9 31 -17 40 -17 9 0 22 -14 29 -30 7 -17 21 -35 31 -41 10 -5 21 -25 25 -44
5 -31 9 -34 22 -23 13 11 14 6 9 -47 -5 -39 -4 -53 2 -40 14 30 16 7 20 -205
2 -120 -3 -169 -31 -273 -9 -35 -16 -46 -28 -42 -12 5 -13 4 -2 -6 16 -17 15
-54 -2 -68 -7 -6 -16 -42 -20 -81 -4 -38 -11 -72 -16 -75 -5 -3 -7 -12 -4 -19
5 -13 -50 -31 -66 -21 -13 8 -20 66 -10 86 7 13 7 19 0 19 -5 0 -10 11 -10 24
0 13 -6 29 -14 35 -8 7 -27 51 -41 99 -35 113 -90 276 -127 377 -17 44 -39
107 -51 140 -11 33 -26 74 -33 91 -7 18 -10 42 -7 53 4 15 1 21 -7 19 -10 -2
-14 14 -14 60 -1 97 1 100 69 91 32 -4 62 -12 68 -18z m2937 16 c0 -2 -10 -12
-22 -23 l-23 -19 19 23 c18 21 26 27 26 19z m-4650 -117 c0 -5 -2 -10 -4 -10
-3 0 -8 5 -11 10 -3 6 -1 10 4 10 6 0 11 -4 11 -10z m2027 -62 c-3 -7 -5 -2
-5 12 0 14 2 19 5 13 2 -7 2 -19 0 -25z m-1942 -27 c-6 -21 -35 -30 -35 -11 0
6 7 10 15 10 8 0 15 8 15 17 0 9 3 14 6 10 3 -3 3 -15 -1 -26z m1362 -23 c-3
-7 -5 -2 -5 12 0 14 2 19 5 13 2 -7 2 -19 0 -25z m41 -7 c3 -8 -1 -12 -9 -9
-7 2 -15 10 -17 17 -3 8 1 12 9 9 7 -2 15 -10 17 -17z m15 -73 c4 -10 8 -9 17
2 8 12 9 9 4 -14 -5 -22 -4 -27 6 -21 10 6 12 2 7 -16 -4 -13 -7 -41 -7 -61 0
-39 -22 -54 -34 -23 -3 8 -1 15 4 15 5 0 2 21 -6 48 -9 26 -18 55 -21 65 -6
20 22 25 30 5z m2616 -191 c0 -18 -3 -26 -6 -19 -2 6 -15 12 -28 12 l-24 0 22
23 c28 29 37 25 36 -16z m-4253 -84 c-19 -36 -25 -42 -26 -25 0 29 23 102 32
102 5 0 9 10 10 23 1 12 3 5 5 -15 3 -25 -4 -51 -21 -85z m4118 61 c9 -3 16
-14 16 -24 0 -11 10 -20 25 -24 32 -8 34 -42 3 -52 -15 -4 -25 -1 -34 12 -8
11 -17 24 -22 29 -14 17 -22 46 -16 56 6 11 8 11 28 3z m-2104 -1644 c27 -27
28 -95 1 -109 -45 -24 -98 92 -53 118 24 15 29 14 52 -9z m2840 -541 c0 -46
-12 -70 -25 -49 -3 5 -1 10 4 10 14 0 14 50 1 70 -7 11 -10 11 -10 2 0 -7 -4
-10 -10 -7 -6 4 -5 13 2 25 19 30 38 5 38 -51z m-2872 -14 c3 -11 1 -17 -3
-13 -5 4 -14 3 -21 -3 -17 -14 -34 -3 -34 22 0 28 53 23 58 -6z m-190 -505
c14 0 22 -6 22 -16 0 -9 8 -23 18 -30 16 -13 16 -15 0 -27 -10 -8 -14 -17 -11
-21 4 -4 -5 -2 -20 3 -16 6 -38 11 -50 11 -16 0 -27 11 -39 40 -16 39 -16 40
3 40 11 0 19 7 19 17 0 15 1 15 18 0 10 -10 28 -17 40 -17z m-133 -325 c48
-47 21 -63 -33 -19 -17 15 -29 30 -26 35 10 16 34 9 59 -16z m3910 -1195 c3
-6 -1 -7 -9 -4 -18 7 -21 14 -7 14 6 0 13 -4 16 -10z m-158 -262 c-3 -8 -6 -5
-6 6 -1 11 2 17 5 13 3 -3 4 -12 1 -19z m-14 -58 c8 0 8 -3 0 -11 -11 -11 -53
8 -53 24 0 4 5 5 10 2 6 -3 13 2 17 12 7 16 8 15 11 -4 2 -13 8 -23 15 -23z
m47 -150 c0 -5 -8 -10 -17 -10 -15 0 -16 2 -3 10 19 12 20 12 20 0z m50 -160
c0 -5 -10 -10 -22 -10 -19 0 -20 2 -8 10 19 13 30 13 30 0z m-182 -126 c12 -4
22 -13 22 -20 0 -8 5 -14 12 -14 6 0 9 -2 7 -5 -10 -10 -79 17 -79 30 0 17 5
18 38 9z m-111 -80 c-3 -3 -12 -4 -19 -1 -8 3 -5 6 6 6 11 1 17 -2 13 -5z
m-62 -44 c3 -5 -1 -10 -9 -10 -9 0 -16 5 -16 10 0 6 4 10 9 10 6 0 13 -4 16
-10z m115 -36 c0 -8 -4 -12 -10 -9 -5 3 -10 10 -10 16 0 5 5 9 10 9 6 0 10 -7
10 -16z m80 -19 c6 -8 9 -18 6 -23 -8 -13 -56 -2 -56 12 0 28 30 35 50 11z
m-243 -127 c-3 -8 -6 -5 -6 6 -1 11 2 17 5 13 3 -3 4 -12 1 -19z m203 12 c0
-5 -4 -10 -10 -10 -5 0 -10 5 -10 10 0 6 5 10 10 10 6 0 10 -4 10 -10z m140
-86 c0 -18 -8 -18 -26 0 -10 11 -11 15 -1 19 16 6 27 -1 27 -19z"/>
<path d="M4465 8310 c-3 -5 -1 -10 4 -10 6 0 11 5 11 10 0 6 -2 10 -4 10 -3 0
-8 -4 -11 -10z"/>
<path d="M6398 6040 c48 -44 95 -40 65 6 -12 19 -24 24 -57 24 l-41 -1 33 -29z"/>
<path d="M4285 5400 c-6 -10 16 -50 27 -50 5 0 8 11 8 24 0 24 -25 43 -35 26z"/>
<path d="M6460 8604 c-23 -62 -17 -84 19 -65 17 10 21 21 21 61 0 27 -4 51 -9
55 -5 3 -19 -20 -31 -51z"/>
<path d="M3002 7623 c-5 -10 -12 -30 -16 -45 -3 -16 -11 -28 -17 -28 -6 0 -7
-4 -4 -10 16 -26 36 1 59 78 9 26 -9 30 -22 5z"/>
<path d="M3571 7465 c-29 -19 -56 -35 -60 -35 -3 0 -21 -13 -39 -30 -18 -16
-37 -30 -41 -30 -10 0 -71 -60 -71 -71 0 -14 32 2 119 60 46 31 90 61 99 66 9
6 32 25 52 42 30 28 32 33 15 33 -11 0 -44 -16 -74 -35z"/>
<path d="M3325 7270 c-13 -6 -15 -9 -5 -9 8 0 22 4 30 9 18 12 2 12 -25 0z"/>
<path d="M8506 6993 c9 -21 18 -44 21 -50 5 -14 33 -18 33 -5 0 18 -46 92 -58
92 -9 0 -8 -9 4 -37z"/>
<path d="M2666 6978 c-9 -35 -7 -68 4 -68 9 0 40 62 40 81 0 20 -38 8 -44 -13z"/>
<path d="M7390 5500 c0 -5 5 -10 10 -10 6 0 10 5 10 10 0 6 -4 10 -10 10 -5 0
-10 -4 -10 -10z"/>
<path d="M7435 5200 c-3 -5 1 -13 10 -16 22 -9 29 1 11 15 -10 8 -16 9 -21 1z"/>
<path d="M7415 5000 c3 -5 10 -10 16 -10 5 0 9 5 9 10 0 6 -7 10 -16 10 -8 0
-12 -4 -9 -10z"/>
<path d="M7490 5000 c0 -5 7 -10 16 -10 8 0 12 5 9 10 -3 6 -10 10 -16 10 -5
0 -9 -4 -9 -10z"/>
<path d="M7444 4939 c-9 -16 12 -33 31 -25 14 5 15 9 5 21 -15 18 -26 19 -36
4z"/>
<path d="M7580 4900 c0 -5 5 -10 10 -10 6 0 10 5 10 10 0 6 -4 10 -10 10 -5 0
-10 -4 -10 -10z"/>
<path d="M7630 4829 c0 -5 5 -7 10 -4 6 3 10 8 10 11 0 2 -4 4 -10 4 -5 0 -10
-5 -10 -11z"/>
<path d="M7480 4800 c0 -5 5 -10 10 -10 6 0 10 5 10 10 0 6 -4 10 -10 10 -5 0
-10 -4 -10 -10z"/>
<path d="M7680 4770 c0 -11 7 -20 15 -20 17 0 18 2 9 24 -9 23 -24 20 -24 -4z"/>
<path d="M7480 4690 c0 -7 24 -20 36 -20 13 0 1 19 -16 23 -11 3 -20 2 -20 -3z"/>
<path d="M7738 4683 c7 -3 16 -2 19 1 4 3 -2 6 -13 5 -11 0 -14 -3 -6 -6z"/>
<path d="M7475 4530 c-3 -5 1 -13 10 -16 22 -9 29 1 11 15 -10 8 -16 9 -21 1z"/>
<path d="M7522 4370 c0 -14 2 -19 5 -12 2 6 2 18 0 25 -3 6 -5 1 -5 -13z"/>
<path d="M7680 4360 c0 -5 5 -10 10 -10 6 0 10 5 10 10 0 6 -4 10 -10 10 -5 0
-10 -4 -10 -10z"/>
<path d="M7630 4270 c0 -15 37 -31 54 -24 9 3 16 1 16 -5 0 -6 8 -11 17 -11
15 0 15 2 3 14 -18 17 -90 38 -90 26z"/>
<path d="M8075 2710 c3 -5 11 -10 16 -10 6 0 7 5 4 10 -3 6 -11 10 -16 10 -6
0 -7 -4 -4 -10z"/>
<path d="M7937 1673 c-11 -10 -8 -41 3 -48 6 -4 19 4 29 17 14 16 16 25 8 30
-15 10 -32 10 -40 1z"/>
<path d="M7995 1500 c3 -5 10 -10 16 -10 5 0 9 5 9 10 0 6 -7 10 -16 10 -8 0
-12 -4 -9 -10z"/>
<path d="M7920 1472 c0 -4 10 -13 21 -21 19 -11 21 -11 15 4 -3 9 -6 19 -6 21
0 2 -7 4 -15 4 -8 0 -15 -3 -15 -8z"/>
<path d="M7968 1423 c6 -2 18 -2 25 0 6 3 1 5 -13 5 -14 0 -19 -2 -12 -5z"/>
<path d="M7952 1339 c2 -6 8 -10 13 -10 5 0 11 4 13 10 2 6 -4 11 -13 11 -9 0
-15 -5 -13 -11z"/>
<path d="M8080 1280 c0 -5 7 -10 16 -10 8 0 12 5 9 10 -3 6 -10 10 -16 10 -5
0 -9 -4 -9 -10z"/>
<path d="M7840 1229 c0 -5 5 -7 10 -4 6 3 10 8 10 11 0 2 -4 4 -10 4 -5 0 -10
-5 -10 -11z"/>
<path d="M8000 1211 c0 -10 24 -21 43 -21 7 0 3 7 -7 15 -22 17 -36 19 -36 6z"/>
<path d="M7832 1020 c0 -8 4 -26 8 -40 6 -20 8 -21 8 -5 0 11 -3 29 -8 40 -5
12 -8 14 -8 5z"/>
<path d="M7750 833 c0 -9 16 -13 45 -13 25 0 45 4 45 9 0 5 -20 11 -45 13 -31
2 -45 -1 -45 -9z"/>
<path d="M7864 806 c-19 -10 -18 -12 24 -34 24 -13 42 -19 40 -15 -34 70 -31
68 -64 49z"/>
<path d="M7760 756 c0 -15 37 -32 47 -22 9 8 -17 36 -33 36 -8 0 -14 -6 -14
-14z"/>
<path d="M7760 670 c0 -5 5 -10 11 -10 5 0 7 5 4 10 -3 6 -8 10 -11 10 -2 0
-4 -4 -4 -10z"/>
<path d="M7884 665 c25 -19 36 -19 36 0 0 10 -10 15 -27 15 -27 -1 -27 -1 -9
-15z"/>
<path d="M7984 669 c-7 -13 14 -39 32 -39 20 0 17 13 -6 32 -12 11 -22 13 -26
7z"/>
<path d="M7870 583 c0 -5 11 -13 25 -20 22 -10 25 -9 25 8 0 14 -7 19 -25 19
-14 0 -25 -3 -25 -7z"/>
<path d="M7800 565 c0 -8 7 -15 16 -15 14 0 14 3 4 15 -7 8 -14 15 -16 15 -2
0 -4 -7 -4 -15z"/>
<path d="M7980 461 c13 -26 25 -32 44 -25 23 9 20 31 -6 38 -42 11 -50 8 -38
-13z"/>
<path d="M7710 98 c0 -26 85 -60 103 -41 8 8 -42 35 -53 28 -4 -3 -13 2 -20
10 -15 18 -30 19 -30 3z"/>
<path d="M8015 101 c32 -14 90 -31 105 -31 11 0 11 4 -2 16 -10 10 -38 18 -70
21 -36 2 -47 1 -33 -6z"/>
<path d="M8317 103 c-13 -12 -7 -29 11 -31 9 -1 67 -5 127 -8 133 -6 244 -18
268 -28 10 -5 23 -4 30 2 15 12 97 21 232 25 50 1 91 6 92 12 3 11 -28 13
-287 21 -399 13 -467 14 -473 7z"/>
<path d="M8225 80 c-3 -5 -1 -10 4 -10 6 0 11 5 11 10 0 6 -2 10 -4 10 -3 0
-8 -4 -11 -10z"/>
</g>
</svg>
